<?xml version="1.0" encoding="UTF-8"?>
<svg id="Layer_2" data-name="Layer 2" xmlns="http://www.w3.org/2000/svg" viewBox="0 0 74.896 68.091">
  <g id="Testi">
    <g>
      <path d="M3.12,8.51c.001.483.293.937.294,1.42s-.009.966-.008,1.448-.333.966-.332,1.449.201.965.203,1.448.051.965.052,1.448-.059.966-.058,1.448-.231.966-.23,1.449.241.965.243,1.448-.107.966-.106,1.448.087.965.088,1.448-.047.966-.046,1.448.082.965.084,1.448-.083.966-.082,1.448-.065.966-.064,1.448-.005.965-.004,1.448.016.965.017,1.448-.065.966-.064,1.448.161.965.163,1.448.07.965.071,1.448-.263.966-.262,1.449.112.965.114,1.448.035.965.037,1.448-.112.966-.111,1.449.046.965.047,1.448-.075.966-.074,1.448.207.965.208,1.448-.155.966-.154,1.449.172.965.173,1.448.122.965.123,1.448.012.965.013,1.448-.097.966-.096,1.448-.166.966-.165,1.449.21.995.211,1.478c-.321.328-.853.604-1.206,1.057-.297.381-.569.842-.859,1.315-.216.353-.213.803-.378,1.135-.189.377-.574.841-.706,1.175.463-.102,1.041-.423,1.531-.521.467-.093.99.061,1.481-.026.469-.083.925-.296,1.415-.372.472-.073.967-.034,1.458-.1.474-.064.942-.23,1.434-.285.477-.054.939-.334,1.432-.379.479-.044.969-.077,1.463-.111.48-.034.977.084,1.47.06.482-.023.971-.017,1.465-.03.483-.013.97-.184,1.464-.187.481-.003.955.302,1.426.309.481.007.961-.167,1.431-.15.481.017.95.178,1.42.204.481.027.961-.027,1.43.009.481.037.959.036,1.427.081.481.047.959.062,1.425.118.479.057.934.25,1.397.315.479.067.933.237,1.395.311.478.077.968.029,1.427.112.477.087.969.048,1.425.14.477.097.955.149,1.409.251.474.106.857.55,1.305.661.474.116.992.236,1.436.355.153-.154.24-.646.405-.992.213-.446.466-.916.473-1.157-.44-.143-1.03-.047-1.491-.188-.444-.135-.893-.273-1.355-.404-.447-.127-.903-.241-1.368-.363-.451-.118-.907-.234-1.373-.347-.454-.11-.891-.312-1.36-.416-.456-.101-.873-.42-1.343-.515-.459-.093-.946-.084-1.418-.17-.461-.084-.945-.076-1.418-.153-.461-.075-.931-.056-1.384-.12-.463-.066-.918-.14-1.372-.196-.466-.057-.94.028-1.396-.019-.466-.048-.913-.207-1.37-.246-.466-.04-.907-.356-1.362-.387-.467-.031-.941.154-1.396.132-.468-.022-.931.013-1.387,0-.469-.013-.927-.294-1.382-.298-.469-.005-.932.309-1.385.313-.47.004-.936-.21-1.39-.197-.47.013-.922.248-1.373.269-.47.022-1.073.072-1.522.101-.004-.482.098-1.102.094-1.585s.141-.966.137-1.448.017-.965.013-1.447-.183-.963-.187-1.445-.096-.964-.1-1.446.254-.966.251-1.449.053-.965.049-1.447-.365-.961-.369-1.443.343-.967.339-1.449-.036-.964-.04-1.446-.283-.962-.287-1.444.159-.966.155-1.448-.076-.964-.08-1.446-.196-.963-.2-1.445.303-.967.299-1.449-.056-.964-.06-1.446-.133-.963-.137-1.445-.105-.963-.109-1.446.27-.967.266-1.449-.115-.963-.119-1.446-.018-.964-.022-1.446.151-.966.147-1.448.037-.965.033-1.447-.372-.961-.376-1.443-.026-.964-.03-1.446.216-.966.212-1.448-.164-.963-.168-1.445.068-.965.064-1.447-.032-.964-.036-1.446.096-.965.092-1.447.025-.965.021-1.447-.096-.964-.1-1.446.141-.852.137-1.334c.426-.065.723-.365,1.211-.42.436-.049.915.088,1.398.052.442-.033.892-.287,1.369-.304.447-.016.915.296,1.391.298.45.002.918-.257,1.393-.237.45.019.917.04,1.388.079.452.037.89.318,1.36.375.452.055.893.203,1.36.278.513.083,1.029.057,1.516.157.51.105,1.021.148,1.502.268.508.127,1.059.065,1.534.206.503.149.936.482,1.402.642.499.172.992.31,1.447.488.496.195.922.495,1.362.69.494.219.963.488,1.385.697.333-.126.699-.453,1.125-.565.362-.095.778-.102,1.202-.167.5-.077.971-.189,1.405-.203.527-.016,1.118.119,1.524.155-.372-.232-.822-.619-1.262-.872-.388-.223-.86-.355-1.3-.588-.401-.212-.752-.576-1.195-.79-.411-.199-.917-.244-1.364-.441-.42-.185-.853-.376-1.304-.556-.428-.171-.843-.417-1.299-.581-.436-.157-.97-.055-1.431-.202-.443-.142-.866-.368-1.332-.499-.448-.126-.881-.34-1.349-.453-.454-.11-.904-.284-1.377-.381-.458-.094-.975.091-1.451.011-.497-.083-.948-.416-1.433-.479-.501-.065-1.009,0-1.496-.045-.504-.046-1.005.027-1.493,0-.506-.027-.993-.364-1.481-.371-.507-.008-1.007.204-1.493.214-.507.011-1.013-.146-1.498-.117-.508.03-1.014.02-1.495.067-.51.049-.997.223-1.476.287-.51.069-.955.433-1.426.514-.511.088-1.033-.021-1.496.076-.514.108-.997.223-1.448.336-.521.13-1.091.24-1.521.364.371.14.825.419,1.247.641.364.192.88.2,1.261.467.288.202.375.574.612.777Z" fill="#4e7568"/>
      <path d="M72.042,8.506c-.001.483.011.943.01,1.425s.04.966.039,1.448-.156.965-.158,1.448-.077.965-.079,1.448-.052.965-.053,1.448.154.966.152,1.449-.038.965-.039,1.448-.155.965-.156,1.448.209.966.207,1.449-.017.965-.019,1.448-.011.965-.012,1.448.174.966.173,1.449-.234.965-.235,1.448-.004.965-.005,1.448-.095.965-.097,1.448.251.966.249,1.449-.264.965-.265,1.447.277.966.275,1.449-.258.965-.26,1.448.18.966.178,1.449-.161.965-.163,1.448-.032.965-.033,1.448.213.966.212,1.449.042.966.04,1.448-.017.965-.018,1.448-.309.965-.311,1.447.254.966.252,1.449-.09.965-.092,1.448.131.966.13,1.449-.162.965-.163,1.448-.074.965-.076,1.448-.018.965-.019,1.448.075.991.074,1.473c.321.328.709.71,1.062,1.163.297.381.711.733,1,1.207.216.353.16.831.325,1.163.189.377.592.79.725,1.123-.463-.102-1.043-.269-1.534-.367-.467-.093-.935-.237-1.426-.324-.469-.083-.942-.206-1.433-.282-.472-.073-.944-.215-1.435-.28-.474-.064-.962-.102-1.454-.157-.477-.054-.959-.147-1.452-.192-.479-.044-.963-.154-1.456-.189-.48-.034-.983.201-1.476.177-.482-.023-.971.045-1.465.032-.483-.013-.966-.334-1.46-.337-.481-.003-.957.178-1.428.185-.481.007-.956.03-1.427.046-.481.017-.96-.023-1.43.003-.481.027-.957.067-1.426.103-.481.037-.967-.033-1.434.012-.481.047-.941.233-1.407.288-.479.057-.954.094-1.417.159-.479.067-.916.354-1.378.428-.478.077-.996-.132-1.456-.048-.477.087-.899.407-1.355.499-.477.097-.989-.025-1.443.076-.474.106-.924.273-1.372.383-.474.116-.935.436-1.379.555-.153-.154-.52-.489-.685-.834-.213-.446-.129-.982-.135-1.223.44-.143.974-.105,1.435-.245.444-.135.881-.314,1.344-.445.447-.127.843-.473,1.307-.595.451-.118.916-.218,1.383-.331.454-.11.899-.299,1.368-.403.456-.101,1.005.208,1.474.113.459-.093.874-.437,1.346-.523.461-.084.966.062,1.44-.015.461-.075.86-.531,1.313-.596.463-.066.936-.04,1.391-.096.466-.057.926-.143,1.382-.19.466-.048.961.272,1.417.233.466-.04.912-.248,1.367-.278.467-.031.917-.262,1.373-.284.468-.022.933-.068,1.388-.081.469-.013.938.363,1.393.359.469-.005.929-.139,1.382-.135.47.004.936-.166,1.39-.153.47.013.919.312,1.37.333.47.022.79-.254,1.238-.225.004-.482.024-.818.028-1.3s.199-.963.203-1.445-.193-.966-.189-1.448.292-.962.296-1.444-.02-.965-.016-1.447-.131-.965-.127-1.448.079-.964.083-1.446.01-.964.014-1.446.11-.963.114-1.446-.348-.967-.344-1.449.354-.961.358-1.444-.107-.965-.103-1.447.174-.963.178-1.445-.043-.965-.039-1.447-.31-.967-.306-1.449.181-.963.185-1.445.116-.963.12-1.446-.063-.965-.059-1.447.128-.963.132-1.445-.007-.964-.003-1.447-.262-.967-.259-1.449-.07-.965-.066-1.447.07-.964.074-1.446.076-.964.08-1.446.199-.963.203-1.445-.307-.967-.303-1.449.422-.961.426-1.443-.019-.965-.015-1.447-.378-.967-.374-1.45.009-.964.013-1.446.197-.963.201-1.445-.18-.966-.176-1.448.197-.953.201-1.435c-.426-.065-.88-.063-1.367-.118-.436-.049-.903.032-1.386-.004-.442-.033-.887-.253-1.365-.27-.447-.016-.909-.003-1.385-.002-.45.002-.911.029-1.386.05-.45.019-.897.202-1.368.24-.452.037-.916.004-1.386.06-.452.055-.955-.184-1.422-.109-.513.083-.973.41-1.461.51-.51.105-1.037.085-1.519.206-.508.127-.928.519-1.403.66-.503.149-.972.327-1.437.487-.499.172-1.071.083-1.525.261-.496.195-.953.426-1.393.621-.494.219-.919.641-1.341.85-.333-.126-.737-.409-1.163-.521-.362-.095-.739-.276-1.162-.342-.5-.077-.979-.186-1.413-.2-.527-.016-.871.132-1.276.169.372-.232.601-.527,1.041-.78.388-.223.814-.439,1.254-.671.401-.212.86-.355,1.303-.569.411-.199.851-.373,1.299-.571.42-.185.837-.41,1.288-.59.428-.171.828-.456,1.284-.62.436-.157.901-.271,1.362-.419.443-.142.896-.295,1.361-.426.448-.126.9-.285,1.369-.398.454-.11.922-.217,1.395-.313.458-.094.932-.175,1.408-.254.497-.083,1.001-.097,1.486-.16.501-.065,1.011.025,1.498-.019.504-.046.996-.102,1.485-.128.506-.027.998-.226,1.487-.234.507-.008,1.011-.061,1.497-.05.507.011.988.411,1.473.44.508.03,1.032-.298,1.513-.252.51.049,1.007.147,1.485.211.51.069.948.483,1.42.564.511.088,1.024.022,1.487.12.514.108,1.027.095,1.478.208.521.13.786.39,1.217.515-.371.14-.552.336-.974.559-.364.192-.845.254-1.226.522-.288.202-.412.534-.65.737Z" fill="#4e7568"/>
      <path d="M37.837,11.177c-.484-.105-1.079-.194-1.511-.323-.478-.144-.979-.169-1.392-.33-.474-.185-.827-.57-1.216-.759-.477-.233-.849-.527-1.197-.735-.4-.239-.893-.29-1.254-.522-.392-.252-.819-.453-1.148-.727-.351-.292-.383-.866-.644-1.222-.255-.348-.564-.639-.713-1.085-.066-.198-.16-.638-.206-1.207-.03-.377-.276-.831-.182-1.274.082-.385.397-.738.638-1.118.272-.428.593-.789.978-1.053.401-.274.895-.319,1.358-.444C31.821.253,32.272.002,32.743,0c.511-.002.977.226,1.406.334.529.133,1.061.166,1.461.411.474.29.856.666,1.161.995.503.54.777,1.013.874,1.192-.385-.3-.756-.585-1.15-.775-.444-.214-.905-.421-1.33-.502-.492-.094-1.022-.099-1.44-.024-.491.087-.822.518-1.136.821-.656.633-.508,1.578-.509,1.802-.001.341-.334.854-.006,1.472.178.335.728.543,1.101,1.013.259.327.443.795.825,1.202.326.348.67.786,1.118,1.205.368.344.875.599,1.329.972.4.328.919.721,1.389,1.059Z" fill="#4e7568"/>
      <path d="M37.754,11.167c.484-.105.93-.127,1.362-.256.478-.144.837-.545,1.251-.706.474-.185.92-.317,1.308-.507.477-.233.881-.462,1.229-.669.4-.239.939-.219,1.299-.45.392-.252.519-.83.848-1.104.351-.292.819-.428,1.079-.783.255-.348.318-.793.467-1.239.066-.198.447-.598.493-1.167.03-.377-.033-.831-.127-1.273-.082-.385-.191-.833-.432-1.212-.272-.428-.603-.872-.989-1.136-.401-.274-.963-.312-1.426-.436-.472-.127-.965-.1-1.436-.102-.511-.002-.987.058-1.416.166-.529.133-1.011.273-1.411.519-.474.29-.878.618-1.183.946-.503.54-.837.897-.934,1.075.385-.3.767-.55,1.161-.74.444-.214.996-.048,1.42-.129.492-.094.943-.295,1.361-.221.491.087.854.394,1.168.697.656.633.542,1.59.543,1.814.001.341.138.775-.19,1.392-.178.335-.609.598-.982,1.068-.259.327-.444.79-.825,1.198-.326.348-.582.875-1.03,1.295-.368.344-.847.641-1.302,1.014-.4.328-.838.609-1.308.946Z" fill="#4e7568"/>
      <path d="M58.179,30.791c-.473-.002-.914.052-1.305.129-.491.097-.812.142-1.146.276-.148-.495-.304-.878-.473-1.325-.184-.486-.437-.925-.64-1.356-.223-.472-.418-.937-.655-1.345-.264-.456-.66-.795-.93-1.178-.308-.437-.654-.787-.952-1.135-.359-.419-.682-.784-.997-1.087-.336-.323-.597-.729-.96-1.02s-.713-.611-1.101-.87c-.386-.257-.934-.242-1.344-.468-.405-.224-.752-.547-1.178-.74-.422-.191-.803-.488-1.244-.649-.434-.158-.937-.105-1.388-.235-.444-.128-.881-.265-1.341-.365-.452-.098-1.09-.348-1.555-.419-.235,1.021.139,1.086.356,2.111.461.081.765.287,1.241.428.453.134.886.326,1.339.525.433.19.865.381,1.286.64.401.247.859.434,1.24.754.359.301.632.712.965,1.085.309.347.646.651.89,1.011.262.386.596.723.792,1.11.211.418.213.913.359,1.317.162.448.392.851.49,1.262.115.481.196.934.247,1.331.072.565-.082.899-.075,1.209-.205-.13-.582-.094-1.203-.315-.39-.139-.773-.588-1.292-.65-.433-.052-.917.172-1.423.228-.468.052-.921.026-1.306.154-.463.155-.904.301-1.238.497-.512.3-.699.722-.884.891.161-.035.661-.367,1.476-.384.479-.01,1.009.328,1.577.433.503.093,1.092.028,1.591.272.46.225.808.67,1.207,1.069.39.391.559.854.776,1.287.245.491.512.919.607,1.388.118.585.045,1.118.066,1.528.025.482.156.963.107,1.455-.047.48-.138.96-.251,1.441-.111.47-.175.965-.345,1.429-.168.455-.439.873-.661,1.313-.218.433-.603.764-.871,1.176-.265.408-.353.942-.664,1.322-.309.377-.612.775-.963,1.118-.349.341-.878.475-1.265.776-.385.299-.784.55-1.204.802-.395.237-.672.699-1.095.891-.419.191-.882.304-1.322.451-.437.146-.894.246-1.347.348s-.898.262-1.358.321-.934-.029-1.396-.014-.925.028-1.386-.001-.91-.16-1.365-.234c-.458-.075-.898-.191-1.342-.311-.449-.121-.923-.147-1.352-.315-.432-.169-.877-.323-1.283-.54-.409-.219-.825-.446-1.201-.714s-.722-.593-1.06-.91c-.335-.315-.484-.798-.775-1.162-.315-.394-.806-.652-1.048-1.072-.251-.436-.388-.928-.568-1.38-.186-.466-.302-.949-.421-1.419-.124-.489-.029-.998-.091-1.477-.065-.505-.419-.972-.427-1.45-.008-.518.087-1.021.132-1.486.052-.533.297-.992.398-1.424.088-.375.157-.807.328-1.259.145-.385.231-.829.494-1.214.232-.34.6-.586.963-.886.354-.293.715-.489,1.094-.658.418-.186.807-.35,1.213-.424.469-.085.906-.23,1.295-.224.624.01.94.176,1.13.214-.2-.215-.532-.644-1.255-1.043-.453-.25-.975-.554-1.628-.671-.458-.082-.886.096-1.283.121-.478.03-.896.023-1.258.132-.585.177-1.134.431-1.314.536-.049-.394.205-.943.216-1.453.009-.425-.047-.873.042-1.352.079-.427.222-.846.391-1.297.181-.483.404-.906.66-1.321.268-.434.355-.999.686-1.364.34-.375.708-.755,1.095-1.064.396-.316.97-.382,1.394-.635.439-.262.76-.749,1.205-.951.473-.215,1.032-.201,1.483-.357.508-.176,1.081-.303,1.522-.416.192-.597.095-.657.095-1.284s.221-.737.004-1.325c-.443.054-1.11.014-1.557.089-.44.074-.839.399-1.283.492-.437.092-.917.016-1.357.127-.433.11-.83.372-1.264.501-.429.127-.918.082-1.348.227-.423.143-.864.268-1.287.43-.418.159-.814.398-1.232.576-.412.175-.804.658-1.215.85-.385-.293-.768-.887-1.298-1.18-.446-.246-1-.37-1.55-.574-.488-.181-.977-.27-1.446-.373-.509-.112-.981-.357-1.457-.396-.527-.043-1.032.173-1.501.195-.546.025-1.074-.162-1.518-.087-.602.102-1.119.335-1.474.438.286.005.783.248,1.367.354.405.073.909-.056,1.372.12.405.154.722.521,1.12.786.363.241.757.449,1.078.806.169.188.373.385.373.385s.441.889.902,1.907c.132.293.417.723.538,1.408.078.44.091.954.139,1.532.04.473.353.977.361,1.531.007.486-.292.999-.317,1.54-.023.493.114,1.052.059,1.585-.179-.128-.794-.381-1.524-.665-.439-.17-.929-.307-1.518-.375-.492-.057-.998-.102-1.571-.01-.43.069-.856.035-1.209.17-.421.16-.662.568-.967.761-.447.282-.936.471-1.123.648.32-.062.856-.176,1.425-.199.413-.017.886-.12,1.38-.059.429.053.846.304,1.305.451.416.133.828.298,1.247.533.261.147.563.395.935.7.275.225.651.394.914.749.258.349.389.816.569,1.486.114.425.368.91.413,1.562.032.469-.176,1.005-.194,1.624-.016.565.01,1.093-.014,1.596-.026.558-.075,1.073-.137,1.578-.066.539.04,1.088-.097,1.596-.135.501-.271,1.026-.507,1.524-.2.422-.588.727-.835,1.095-.259.386-.389.868-.688,1.198-.311.344-.65.672-.989.96-.355.302-.918.305-1.286.551-.391.261-.655.692-1.041.895-.426.225-.79.551-1.182.713-.466.193-1.012.043-1.389.161-.633.199-1.119.427-1.324.47.125.253,1.251.478,1.659.551.467.084.932.133,1.385.167.473.036.945.237,1.398.222.476-.015.905-.442,1.352-.508.472-.07.903-.167,1.336-.289.462-.13.886-.253,1.296-.435.44-.196.937-.24,1.307-.488.401-.27.613-.718.918-1.04.331-.35.665-.798.865-1.197.436.206.932.576,1.369.763.444.19.855.455,1.298.625.451.173.941.228,1.391.381.457.155.894.362,1.35.496.463.137.907.34,1.367.456.468.118.92.32,1.385.417.473.099.983.002,1.451.078.477.078.972-.032,1.443.023.48.057.934.299,1.407.333.482.035.957.23,1.431.241.483.011.965-.239,1.439-.252.484-.013.974.145,1.447.108.482-.038.947-.236,1.416-.299.48-.065.923-.29,1.388-.381.475-.092.92-.244,1.378-.363.468-.122,1.037.119,1.486-.03.459-.152.903-.363,1.341-.543.447-.184.906-.36,1.329-.573.432-.217.678-.76,1.083-1.006.412-.25.932-.321,1.315-.601.389-.284.605-.767.962-1.081.36-.317.861-.476,1.186-.823.328-.349.546-.787.836-1.166.224-.293.737-.529,1.037-1.02.221-.361.124-.957.354-1.43.192-.396.611-.729.791-1.207.158-.419.18-.912.317-1.394.124-.436.338-.872.436-1.361.09-.447.005-.939.067-1.432.057-.455.279-.911.307-1.405.024-.423-.063-.892.097-1.274.163-.389.573-.641.863-.94.288-.297.656-.404,1.054-.565.008-.003.012-.016.02-.019.529-.214.984-.495,1.476-.603.57-.125,1.108-.026,1.594-.052.631-.033,1.129-.281,1.552-.238-.186-.174-.52-.408-1.028-.74-.331-.216-.744-.388-1.196-.581-.385-.164-.768-.44-1.231-.539-.414-.088-.872-.108-1.344-.11Z" fill="#4e7568"/>
      <g>
        <path d="M42.53,64.604c-.393-.383-.87-.631-1.124-1.036-.3-.48-.519-.959-.67-1.386-.243-.685-.136-1.262-.168-1.505-.004-.451-.332-.893-.336-1.344s.193-.904.189-1.355-.235-.9-.239-1.351.203-.904.199-1.355-.065-.86-.069-1.311c-.534.062-1.046.018-1.592.054-.534.035-1.072.105-1.622.105-.607,0-1.27-.094-1.884-.131,0,.45-.065.978-.065,1.428s.326.9.326,1.351-.058.901-.058,1.351.051.911.051,1.361c-.035.233-.505.718-.736,1.417-.141.428-.216.937-.481,1.434-.226.423-.588.77-.93,1.189-.307.377-.399,1.013-.819,1.349-.397.318-.845.56-1.233.758-.467.237-1.027.11-1.431.219-.587.158-1.202.36-1.513.377.322.258.81.699,1.295.933.402.194.924.273,1.432.368.514.096,1.042.179,1.516.132.51-.051.909-.517,1.361-.684.484-.179.91-.367,1.313-.617.462-.287.906-.51,1.239-.8.583-.508.878-.752.967-.861.242.408.536.733.828,1.076.308.361.666.691,1.019.972.371.295.771.586,1.178.783.423.205.921.249,1.368.337.454.09.937.263,1.4.222.654-.058,1.284-.273,1.769-.504.674-.322,1.06-.887,1.353-1.156-.224,0-.692-.143-1.386-.335-.417-.116-.964-.092-1.446-.37-.394-.228-.615-.735-1.004-1.115Z" fill="#4e7568"/>
        <path d="M35.28,17.942c.003.489-.13,1.001-.128,1.49s-.15.978-.147,1.467.007.977.009,1.466.222.976.224,1.465-.131.978-.128,1.466-.116.978-.113,1.466.019.977.022,1.466-.074.978-.072,1.466.312.976.314,1.464-.26.979-.257,1.467-.006.977-.003,1.466.334.975.337,1.464-.309.979-.306,1.467.008.977.011,1.466.173.976.175,1.465.142.976.145,1.465-.075.978-.072,1.466-.174.978-.171,1.467.012.977.014,1.466.156.976.159,1.465.117.977.12,1.465-.047.875-.044,1.364c.549.07,1.004.393,1.579.393.569,0,1.131-.242,1.69-.314.566-.073,1.112-.162,1.656-.304-.003-.484.148-.957.145-1.441s.012-.969.009-1.453-.326-.966-.329-1.451-.008-.969-.011-1.453.295-.971.292-1.455-.329-.966-.333-1.451.309-.971.305-1.455.03-.969.027-1.453.014-.969.011-1.453-.159-.968-.162-1.452-.214-.967-.217-1.452.249-.97.245-1.455-.256-.967-.259-1.451.356-.971.353-1.455-.12-.968-.123-1.452-.11-.968-.113-1.452.089-.969.086-1.454-.246-.967-.249-1.451.321-.971.318-1.455.036-.969.033-1.453-.419-.966-.422-1.45.203-.97.2-1.454c0-.002.15.038.15.036.087-.377.173-.834.411-1.339.186-.396.306-.877.635-1.282.315-.389.601-.791.954-1.05.401-.296.938-.292,1.341-.455.477-.193.917-.254,1.322-.32.699-.113,1.38-.222,1.539-.211-.141-.089-.79-.584-1.546-.85-.439-.155-1.006-.16-1.577-.224-.49-.055-.996.098-1.545.185-.488.077-1.019.066-1.526.307-.583.277-.95.762-1.344,1.123-.535.489-1.075.735-1.305,1.087-.148-.193-.469-.325-.902-.727-.279-.259-.637-.468-1.035-.73-.337-.221-.537-.765-.959-.943-.377-.16-.83-.268-1.275-.364-.563-.12-1.128-.039-1.62-.026-.592.017-1.172-.046-1.628.075-.702.187-1.329.641-1.593.78.283.01,1.069-.051,1.815.168.466.137.942.462,1.475.776.439.258.833.628,1.265,1.052.305.299.561.586.783.891.256.352.719.551.884.879.208.413.36.859.463,1.172Z" fill="#4e7568"/>
      </g>
    </g>
  </g>
</svg>